<svg width="457" height="233" viewBox="0 0 457 233" fill="none" xmlns="http://www.w3.org/2000/svg">
<path d="M36.4401 132L2.41772 38.97H20.625L46.9392 114.59L73.3863 38.97H91.3278L57.3054 132H36.4401ZM108.39 55.8483C105.289 55.8483 102.72 54.918 100.682 53.0574C98.7328 51.1968 97.7582 48.8489 97.7582 46.0137C97.7582 43.1785 98.7328 40.8749 100.682 39.1029C102.72 37.2423 105.289 36.312 108.39 36.312C111.491 36.312 114.016 37.2423 115.966 39.1029C118.003 40.8749 119.022 43.1785 119.022 46.0137C119.022 48.8489 118.003 51.1968 115.966 53.0574C114.016 54.918 111.491 55.8483 108.39 55.8483ZM99.8846 132V66.0816H116.896V132H99.8846ZM159.127 133.595C153.28 133.595 148.141 132.664 143.711 130.804C139.281 128.855 135.737 126.197 133.079 122.83C130.421 119.463 128.826 115.565 128.294 111.135H145.439C145.97 113.704 147.388 115.919 149.691 117.78C152.084 119.552 155.14 120.438 158.861 120.438C162.583 120.438 165.285 119.685 166.968 118.178C168.74 116.672 169.626 114.944 169.626 112.995C169.626 110.16 168.386 108.255 165.905 107.281C163.424 106.217 159.969 105.198 155.539 104.224C152.704 103.604 149.824 102.851 146.9 101.965C143.977 101.079 141.274 99.9711 138.794 98.6421C136.401 97.2245 134.452 95.4525 132.946 93.3261C131.44 91.1111 130.687 88.4088 130.687 85.2192C130.687 79.3716 132.99 74.4543 137.597 70.4673C142.293 66.4803 148.85 64.4868 157.267 64.4868C165.063 64.4868 171.265 66.3031 175.873 69.9357C180.568 73.5683 183.359 78.5742 184.245 84.9534H168.164C167.19 80.0804 163.513 77.6439 157.134 77.6439C153.944 77.6439 151.463 78.2641 149.691 79.5045C148.008 80.7449 147.166 82.2954 147.166 84.156C147.166 86.1052 148.451 87.6557 151.02 88.8075C153.59 89.9593 157.001 91.0225 161.254 91.9971C165.861 93.0603 170.069 94.2564 173.879 95.5854C177.778 96.8258 180.879 98.7307 183.182 101.3C185.486 103.781 186.638 107.369 186.638 112.065C186.726 116.141 185.663 119.818 183.448 123.096C181.233 126.374 178.043 128.943 173.879 130.804C169.715 132.664 164.798 133.595 159.127 133.595ZM221.664 133.595C215.994 133.595 211.342 132.709 207.71 130.937C204.077 129.076 201.375 126.64 199.603 123.627C197.831 120.615 196.945 117.292 196.945 113.66C196.945 107.546 199.337 102.585 204.121 98.775C208.906 94.9652 216.082 93.0603 225.651 93.0603H242.397V91.4655C242.397 86.9469 241.112 83.6244 238.543 81.498C235.973 79.3716 232.784 78.3084 228.974 78.3084C225.518 78.3084 222.506 79.1501 219.937 80.8335C217.367 82.4283 215.772 84.8205 215.152 88.0101H198.54C198.983 83.2257 200.577 79.0615 203.324 75.5175C206.159 71.9735 209.792 69.2712 214.222 67.4106C218.652 65.4614 223.613 64.4868 229.107 64.4868C238.498 64.4868 245.896 66.8347 251.301 71.5305C256.706 76.2263 259.408 82.8713 259.408 91.4655V132H244.922L243.327 121.368C241.378 124.912 238.631 127.836 235.087 130.139C231.632 132.443 227.157 133.595 221.664 133.595ZM225.518 120.305C230.391 120.305 234.157 118.71 236.815 115.52C239.561 112.331 241.289 108.388 241.998 103.692H227.512C222.993 103.692 219.759 104.534 217.81 106.217C215.861 107.812 214.886 109.806 214.886 112.198C214.886 114.767 215.861 116.761 217.81 118.178C219.759 119.596 222.329 120.305 225.518 120.305ZM272.873 132V66.0816H288.023L289.618 78.4413C292.01 74.1885 295.244 70.8217 299.32 68.3409C303.484 65.7715 308.357 64.4868 313.939 64.4868V82.4283H309.154C305.433 82.4283 302.111 83.0042 299.187 84.156C296.263 85.3078 293.959 87.3013 292.276 90.1365C290.681 92.9717 289.884 96.9144 289.884 101.965V132H272.873ZM331.967 55.8483C328.866 55.8483 326.296 54.918 324.259 53.0574C322.309 51.1968 321.335 48.8489 321.335 46.0137C321.335 43.1785 322.309 40.8749 324.259 39.1029C326.296 37.2423 328.866 36.312 331.967 36.312C335.068 36.312 337.593 37.2423 339.542 39.1029C341.58 40.8749 342.599 43.1785 342.599 46.0137C342.599 48.8489 341.58 51.1968 339.542 53.0574C337.593 54.918 335.068 55.8483 331.967 55.8483ZM323.461 132V66.0816H340.472V132H323.461ZM387.089 133.595C380.71 133.595 374.951 132.133 369.813 129.209C364.762 126.285 360.731 122.254 357.719 117.115C354.795 111.888 353.333 105.863 353.333 99.0408C353.333 92.2186 354.839 86.2381 357.852 81.0993C360.864 75.8719 364.895 71.7963 369.945 68.8725C375.084 65.9487 380.843 64.4868 387.222 64.4868C393.513 64.4868 399.183 65.9487 404.234 68.8725C409.372 71.7963 413.404 75.8719 416.327 81.0993C419.34 86.2381 420.846 92.2186 420.846 99.0408C420.846 105.863 419.34 111.888 416.327 117.115C413.404 122.254 409.372 126.285 404.234 129.209C399.095 132.133 393.38 133.595 387.089 133.595ZM387.089 118.843C391.52 118.843 395.374 117.204 398.652 113.926C401.93 110.559 403.569 105.597 403.569 99.0408C403.569 92.4844 401.93 87.5671 398.652 84.2889C395.374 80.9221 391.564 79.2387 387.222 79.2387C382.704 79.2387 378.805 80.9221 375.527 84.2889C372.338 87.5671 370.743 92.4844 370.743 99.0408C370.743 105.597 372.338 110.559 375.527 113.926C378.805 117.204 382.66 118.843 387.089 118.843ZM440.597 132.93C437.496 132.93 434.926 131.956 432.888 130.007C430.939 128.057 429.965 125.709 429.965 122.963C429.965 120.128 430.939 117.735 432.888 115.786C434.926 113.837 437.496 112.862 440.597 112.862C443.698 112.862 446.223 113.837 448.172 115.786C450.21 117.735 451.229 120.128 451.229 122.963C451.229 125.709 450.21 128.057 448.172 130.007C446.223 131.956 443.698 132.93 440.597 132.93Z" fill="#FF5A60"/>
<path d="M73.5813 218.431L61.9304 187.421H65.9617L75.752 214.488L85.6309 187.421H89.5736L77.9227 218.431H73.5813ZM95.0322 191.585C94.2939 191.585 93.6737 191.349 93.1716 190.877C92.6991 190.374 92.4628 189.754 92.4628 189.016C92.4628 188.307 92.6991 187.716 93.1716 187.244C93.6737 186.771 94.2939 186.535 95.0322 186.535C95.741 186.535 96.3464 186.771 96.8485 187.244C97.3506 187.716 97.6016 188.307 97.6016 189.016C97.6016 189.754 97.3506 190.374 96.8485 190.877C96.3464 191.349 95.741 191.585 95.0322 191.585ZM93.1716 218.431V196.458H96.8928V218.431H93.1716ZM110.958 218.963C108.33 218.963 106.144 218.298 104.402 216.969C102.66 215.64 101.641 213.839 101.345 211.565H105.155C105.391 212.716 105.997 213.721 106.971 214.577C107.976 215.404 109.319 215.817 111.003 215.817C112.568 215.817 113.72 215.493 114.458 214.843C115.196 214.164 115.566 213.366 115.566 212.451C115.566 211.122 115.078 210.236 114.104 209.793C113.159 209.35 111.815 208.951 110.072 208.597C108.891 208.36 107.71 208.021 106.528 207.578C105.347 207.135 104.358 206.514 103.56 205.717C102.763 204.89 102.364 203.812 102.364 202.483C102.364 200.563 103.073 198.998 104.491 197.787C105.938 196.547 107.887 195.927 110.338 195.927C112.671 195.927 114.576 196.517 116.053 197.699C117.559 198.851 118.43 200.504 118.667 202.66H114.99C114.842 201.538 114.355 200.667 113.528 200.047C112.73 199.397 111.652 199.072 110.294 199.072C108.965 199.072 107.931 199.353 107.193 199.914C106.484 200.475 106.13 201.213 106.13 202.129C106.13 203.015 106.587 203.709 107.503 204.211C108.448 204.713 109.718 205.141 111.313 205.496C112.671 205.791 113.956 206.16 115.167 206.603C116.407 207.017 117.411 207.651 118.179 208.508C118.977 209.335 119.375 210.546 119.375 212.141C119.405 214.119 118.652 215.758 117.116 217.058C115.61 218.328 113.557 218.963 110.958 218.963ZM131.17 218.963C129.339 218.963 127.818 218.653 126.607 218.032C125.397 217.412 124.496 216.585 123.905 215.552C123.314 214.518 123.019 213.396 123.019 212.185C123.019 209.94 123.876 208.213 125.588 207.002C127.301 205.791 129.635 205.185 132.588 205.185H138.524V204.92C138.524 203 138.022 201.553 137.018 200.578C136.014 199.574 134.67 199.072 132.987 199.072C131.539 199.072 130.284 199.441 129.221 200.18C128.187 200.888 127.538 201.937 127.272 203.325H123.462C123.61 201.73 124.141 200.386 125.057 199.294C126.002 198.201 127.169 197.374 128.557 196.813C129.945 196.222 131.421 195.927 132.987 195.927C136.058 195.927 138.362 196.754 139.897 198.408C141.463 200.032 142.245 202.203 142.245 204.92V218.431H138.923L138.701 214.488C138.081 215.729 137.166 216.792 135.955 217.678C134.773 218.535 133.179 218.963 131.17 218.963ZM131.746 215.817C133.164 215.817 134.375 215.448 135.379 214.71C136.412 213.972 137.195 213.012 137.727 211.83C138.258 210.649 138.524 209.409 138.524 208.109V208.065H132.898C130.713 208.065 129.162 208.449 128.246 209.217C127.36 209.955 126.917 210.885 126.917 212.008C126.917 213.159 127.331 214.09 128.158 214.799C129.014 215.478 130.21 215.817 131.746 215.817ZM155.414 218.963C152.786 218.963 150.6 218.298 148.858 216.969C147.115 215.64 146.096 213.839 145.801 211.565H149.611C149.847 212.716 150.453 213.721 151.427 214.577C152.431 215.404 153.775 215.817 155.458 215.817C157.024 215.817 158.176 215.493 158.914 214.843C159.652 214.164 160.021 213.366 160.021 212.451C160.021 211.122 159.534 210.236 158.559 209.793C157.614 209.35 156.271 208.951 154.528 208.597C153.347 208.36 152.165 208.021 150.984 207.578C149.803 207.135 148.813 206.514 148.016 205.717C147.219 204.89 146.82 203.812 146.82 202.483C146.82 200.563 147.529 198.998 148.946 197.787C150.393 196.547 152.343 195.927 154.794 195.927C157.127 195.927 159.032 196.517 160.509 197.699C162.015 198.851 162.886 200.504 163.122 202.66H159.445C159.298 201.538 158.81 200.667 157.984 200.047C157.186 199.397 156.108 199.072 154.75 199.072C153.421 199.072 152.387 199.353 151.649 199.914C150.94 200.475 150.585 201.213 150.585 202.129C150.585 203.015 151.043 203.709 151.959 204.211C152.904 204.713 154.174 205.141 155.769 205.496C157.127 205.791 158.412 206.16 159.623 206.603C160.863 207.017 161.867 207.651 162.635 208.508C163.432 209.335 163.831 210.546 163.831 212.141C163.861 214.119 163.108 215.758 161.572 217.058C160.066 218.328 158.013 218.963 155.414 218.963ZM179.21 218.431V196.458H182.577L182.842 199.648C183.551 198.467 184.496 197.551 185.678 196.901C186.859 196.252 188.188 195.927 189.665 195.927C191.407 195.927 192.899 196.281 194.139 196.99C195.409 197.699 196.383 198.777 197.063 200.224C197.831 198.895 198.879 197.846 200.208 197.079C201.567 196.311 203.028 195.927 204.594 195.927C207.222 195.927 209.319 196.724 210.884 198.319C212.45 199.884 213.232 202.306 213.232 205.584V218.431H209.555V205.983C209.555 203.709 209.098 201.996 208.182 200.844C207.266 199.692 205.952 199.116 204.239 199.116C202.467 199.116 200.991 199.81 199.809 201.198C198.658 202.557 198.082 204.506 198.082 207.046V218.431H194.36V205.983C194.36 203.709 193.903 201.996 192.987 200.844C192.072 199.692 190.757 199.116 189.044 199.116C187.302 199.116 185.84 199.81 184.659 201.198C183.507 202.557 182.931 204.506 182.931 207.046V218.431H179.21ZM225.316 218.963C223.485 218.963 221.964 218.653 220.754 218.032C219.543 217.412 218.642 216.585 218.051 215.552C217.461 214.518 217.165 213.396 217.165 212.185C217.165 209.94 218.022 208.213 219.735 207.002C221.448 205.791 223.781 205.185 226.734 205.185H232.67V204.92C232.67 203 232.168 201.553 231.164 200.578C230.16 199.574 228.816 199.072 227.133 199.072C225.686 199.072 224.43 199.441 223.367 200.18C222.334 200.888 221.684 201.937 221.418 203.325H217.608C217.756 201.73 218.288 200.386 219.203 199.294C220.148 198.201 221.315 197.374 222.703 196.813C224.091 196.222 225.567 195.927 227.133 195.927C230.204 195.927 232.508 196.754 234.044 198.408C235.609 200.032 236.391 202.203 236.391 204.92V218.431H233.069L232.847 214.488C232.227 215.729 231.312 216.792 230.101 217.678C228.92 218.535 227.325 218.963 225.316 218.963ZM225.892 215.817C227.31 215.817 228.521 215.448 229.525 214.71C230.559 213.972 231.341 213.012 231.873 211.83C232.404 210.649 232.67 209.409 232.67 208.109V208.065H227.044C224.859 208.065 223.308 208.449 222.393 209.217C221.507 209.955 221.064 210.885 221.064 212.008C221.064 213.159 221.477 214.09 222.304 214.799C223.161 215.478 224.357 215.817 225.892 215.817ZM251.111 218.963C248.925 218.963 247.006 218.461 245.352 217.457C243.727 216.452 242.458 215.079 241.542 213.337C240.656 211.594 240.213 209.615 240.213 207.4C240.213 205.185 240.671 203.221 241.586 201.509C242.502 199.766 243.772 198.408 245.396 197.433C247.02 196.429 248.94 195.927 251.155 195.927C252.957 195.927 254.551 196.296 255.94 197.034C257.328 197.773 258.406 198.806 259.173 200.135V186.535H262.895V218.431H259.528L259.173 214.799C258.465 215.862 257.446 216.822 256.117 217.678C254.788 218.535 253.119 218.963 251.111 218.963ZM251.51 215.729C252.986 215.729 254.286 215.389 255.408 214.71C256.56 214.001 257.446 213.027 258.066 211.786C258.716 210.546 259.041 209.099 259.041 207.445C259.041 205.791 258.716 204.344 258.066 203.103C257.446 201.863 256.56 200.903 255.408 200.224C254.286 199.515 252.986 199.161 251.51 199.161C250.062 199.161 248.763 199.515 247.611 200.224C246.489 200.903 245.603 201.863 244.953 203.103C244.333 204.344 244.023 205.791 244.023 207.445C244.023 209.099 244.333 210.546 244.953 211.786C245.603 213.027 246.489 214.001 247.611 214.71C248.763 215.389 250.062 215.729 251.51 215.729ZM278.009 218.963C275.912 218.963 274.051 218.49 272.427 217.545C270.803 216.571 269.518 215.227 268.573 213.514C267.657 211.801 267.2 209.778 267.2 207.445C267.2 205.141 267.657 203.133 268.573 201.42C269.489 199.677 270.758 198.334 272.383 197.389C274.037 196.414 275.942 195.927 278.097 195.927C280.224 195.927 282.055 196.414 283.591 197.389C285.156 198.334 286.352 199.589 287.179 201.154C288.006 202.719 288.419 204.403 288.419 206.204C288.419 206.529 288.405 206.854 288.375 207.179C288.375 207.504 288.375 207.873 288.375 208.286H270.877C270.965 209.97 271.349 211.373 272.028 212.495C272.737 213.588 273.608 214.415 274.642 214.976C275.705 215.537 276.828 215.817 278.009 215.817C279.545 215.817 280.829 215.463 281.863 214.754C282.897 214.045 283.65 213.086 284.122 211.875H287.799C287.209 213.913 286.071 215.611 284.388 216.969C282.734 218.298 280.608 218.963 278.009 218.963ZM278.009 199.072C276.237 199.072 274.657 199.618 273.269 200.711C271.91 201.774 271.128 203.34 270.921 205.407H284.742C284.654 203.428 283.975 201.878 282.705 200.755C281.435 199.633 279.869 199.072 278.009 199.072ZM313.293 218.963C311.196 218.963 309.336 218.49 307.711 217.545C306.087 216.571 304.802 215.227 303.857 213.514C302.942 211.801 302.484 209.778 302.484 207.445C302.484 205.141 302.942 203.133 303.857 201.42C304.773 199.677 306.043 198.334 307.667 197.389C309.321 196.414 311.226 195.927 313.382 195.927C315.508 195.927 317.339 196.414 318.875 197.389C320.44 198.334 321.636 199.589 322.463 201.154C323.29 202.719 323.704 204.403 323.704 206.204C323.704 206.529 323.689 206.854 323.659 207.179C323.659 207.504 323.659 207.873 323.659 208.286H306.161C306.249 209.97 306.633 211.373 307.313 212.495C308.021 213.588 308.893 214.415 309.926 214.976C310.99 215.537 312.112 215.817 313.293 215.817C314.829 215.817 316.114 215.463 317.147 214.754C318.181 214.045 318.934 213.086 319.407 211.875H323.083C322.493 213.913 321.356 215.611 319.672 216.969C318.018 218.298 315.892 218.963 313.293 218.963ZM313.293 199.072C311.521 199.072 309.941 199.618 308.553 200.711C307.194 201.774 306.412 203.34 306.205 205.407H320.027C319.938 203.428 319.259 201.878 317.989 200.755C316.719 199.633 315.154 199.072 313.293 199.072ZM335.115 218.963C333.284 218.963 331.763 218.653 330.552 218.032C329.341 217.412 328.44 216.585 327.849 215.552C327.259 214.518 326.963 213.396 326.963 212.185C326.963 209.94 327.82 208.213 329.533 207.002C331.246 205.791 333.579 205.185 336.532 205.185H342.468V204.92C342.468 203 341.966 201.553 340.962 200.578C339.958 199.574 338.614 199.072 336.931 199.072C335.484 199.072 334.229 199.441 333.165 200.18C332.132 200.888 331.482 201.937 331.216 203.325H327.406C327.554 201.73 328.086 200.386 329.001 199.294C329.946 198.201 331.113 197.374 332.501 196.813C333.889 196.222 335.366 195.927 336.931 195.927C340.002 195.927 342.306 196.754 343.842 198.408C345.407 200.032 346.19 202.203 346.19 204.92V218.431H342.867L342.646 214.488C342.025 215.729 341.11 216.792 339.899 217.678C338.718 218.535 337.123 218.963 335.115 218.963ZM335.691 215.817C337.108 215.817 338.319 215.448 339.323 214.71C340.357 213.972 341.139 213.012 341.671 211.83C342.203 210.649 342.468 209.409 342.468 208.109V208.065H336.842C334.657 208.065 333.106 208.449 332.191 209.217C331.305 209.955 330.862 210.885 330.862 212.008C330.862 213.159 331.275 214.09 332.102 214.799C332.959 215.478 334.155 215.817 335.691 215.817ZM359.359 218.963C356.73 218.963 354.545 218.298 352.802 216.969C351.06 215.64 350.041 213.839 349.745 211.565H353.555C353.791 212.716 354.397 213.721 355.372 214.577C356.376 215.404 357.719 215.817 359.403 215.817C360.968 215.817 362.12 215.493 362.858 214.843C363.597 214.164 363.966 213.366 363.966 212.451C363.966 211.122 363.478 210.236 362.504 209.793C361.559 209.35 360.215 208.951 358.473 208.597C357.291 208.36 356.11 208.021 354.929 207.578C353.747 207.135 352.758 206.514 351.96 205.717C351.163 204.89 350.764 203.812 350.764 202.483C350.764 200.563 351.473 198.998 352.891 197.787C354.338 196.547 356.287 195.927 358.738 195.927C361.071 195.927 362.976 196.517 364.453 197.699C365.959 198.851 366.83 200.504 367.067 202.66H363.39C363.242 201.538 362.755 200.667 361.928 200.047C361.131 199.397 360.053 199.072 358.694 199.072C357.365 199.072 356.331 199.353 355.593 199.914C354.884 200.475 354.53 201.213 354.53 202.129C354.53 203.015 354.988 203.709 355.903 204.211C356.848 204.713 358.118 205.141 359.713 205.496C361.071 205.791 362.356 206.16 363.567 206.603C364.807 207.017 365.812 207.651 366.579 208.508C367.377 209.335 367.776 210.546 367.776 212.141C367.805 214.119 367.052 215.758 365.516 217.058C364.01 218.328 361.957 218.963 359.359 218.963ZM373.701 228.177L379.15 216.305H377.866L369.138 196.458H373.17L380.435 213.558L388.143 196.458H391.997L377.6 228.177H373.701Z" fill="#24252C"/>
</svg>
